<?xml version="1.0" encoding="UTF-8" standalone="no"?>
<!DOCTYPE svg PUBLIC "-//W3C//DTD SVG 1.1//EN"
 "http://www.w3.org/Graphics/SVG/1.1/DTD/svg11.dtd">
<!-- Generated by graphviz version 2.47.2 (20210527.0053)
 -->
<!-- Title: main Pages: 1 -->
<svg width="142pt" height="66pt"
 viewBox="0.00 0.00 142.00 66.00" xmlns="http://www.w3.org/2000/svg" xmlns:xlink="http://www.w3.org/1999/xlink">
<g id="graph0" class="graph" transform="scale(1 1) rotate(0) translate(4 62)">
<title>main</title>
<polygon fill="white" stroke="transparent" points="-4,4 -4,-62 138,-62 138,4 -4,4"/>
<!-- Node1 -->
<g id="node1" class="node">
<title>Node1</title>
<g id="a_node1"><a xlink:title="Main function.">
<polygon fill="#bfbfbf" stroke="black" points="0,-19.5 0,-38.5 38,-38.5 38,-19.5 0,-19.5"/>
<text text-anchor="middle" x="19" y="-26.5" font-family="Helvetica,sans-Serif" font-size="10.00">main</text>
</a>
</g>
</g>
<!-- Node2 -->
<g id="node2" class="node">
<title>Node2</title>
<g id="a_node2"><a xlink:href="../../d4/def/longest__common__subsequence_8cpp.html#a9f76e90d6971cb6e19c0f56e699f0849" target="_top" xlink:title="Function to stress test above algorithm n=30,000.">
<polygon fill="white" stroke="black" points="74,-38.5 74,-57.5 134,-57.5 134,-38.5 74,-38.5"/>
<text text-anchor="middle" x="104" y="-45.5" font-family="Helvetica,sans-Serif" font-size="10.00">stresstest</text>
</a>
</g>
</g>
<!-- Node1&#45;&gt;Node2 -->
<g id="edge1" class="edge">
<title>Node1&#45;&gt;Node2</title>
<path fill="none" stroke="midnightblue" d="M38.01,-33.12C45.71,-34.89 55.03,-37.02 64.17,-39.11"/>
<polygon fill="midnightblue" stroke="midnightblue" points="63.4,-42.53 73.93,-41.35 64.96,-35.7 63.4,-42.53"/>
</g>
<!-- Node3 -->
<g id="node3" class="node">
<title>Node3</title>
<g id="a_node3"><a xlink:href="../../d4/def/longest__common__subsequence_8cpp.html#ae1a3968e7947464bee7714f6d43b7002" target="_top" xlink:title="Function to test above algorithm.">
<polygon fill="white" stroke="black" points="87.5,-0.5 87.5,-19.5 120.5,-19.5 120.5,-0.5 87.5,-0.5"/>
<text text-anchor="middle" x="104" y="-7.5" font-family="Helvetica,sans-Serif" font-size="10.00">test</text>
</a>
</g>
</g>
<!-- Node1&#45;&gt;Node3 -->
<g id="edge2" class="edge">
<title>Node1&#45;&gt;Node3</title>
<path fill="none" stroke="midnightblue" d="M38.01,-24.88C49.48,-22.25 64.53,-18.81 77.25,-15.89"/>
<polygon fill="midnightblue" stroke="midnightblue" points="78.3,-19.25 87.26,-13.6 76.73,-12.42 78.3,-19.25"/>
</g>
</g>
</svg>
