<?xml version="1.0" encoding="UTF-8" standalone="no"?>
<!DOCTYPE svg PUBLIC "-//W3C//DTD SVG 1.1//EN"
 "http://www.w3.org/Graphics/SVG/1.1/DTD/svg11.dtd">
<!-- Generated by graphviz version 2.47.2 (20210527.0053)
 -->
<!-- Title: data_structures::sparse_table::Sparse_table Pages: 1 -->
<svg width="189pt" height="184pt"
 viewBox="0.00 0.00 189.00 184.00" xmlns="http://www.w3.org/2000/svg" xmlns:xlink="http://www.w3.org/1999/xlink">
<g id="graph0" class="graph" transform="scale(1 1) rotate(0) translate(4 180)">
<title>data_structures::sparse_table::Sparse_table</title>
<polygon fill="white" stroke="transparent" points="-4,4 -4,-180 185,-180 185,4 -4,4"/>
<!-- Node1 -->
<g id="node1" class="node">
<title>Node1</title>
<g id="a_node1"><a xlink:title="A struct to represent sparse table for min() as their invariant function, for the given array A....">
<polygon fill="#bfbfbf" stroke="black" points="5.5,-0.5 5.5,-30.5 124.5,-30.5 124.5,-0.5 5.5,-0.5"/>
<text text-anchor="start" x="13.5" y="-18.5" font-family="Helvetica,sans-Serif" font-size="10.00">data_structures::sparse</text>
<text text-anchor="middle" x="65" y="-7.5" font-family="Helvetica,sans-Serif" font-size="10.00">_table::Sparse_table</text>
</a>
</g>
</g>
<!-- Node2 -->
<g id="node2" class="node">
<title>Node2</title>
<g id="a_node2"><a target="_blank" xlink:href="http://en.cppreference.com/w/cpp/container/array.html" xlink:title=" ">
<polygon fill="white" stroke="black" points="73,-78.5 73,-108.5 181,-108.5 181,-78.5 73,-78.5"/>
<text text-anchor="start" x="81" y="-96.5" font-family="Helvetica,sans-Serif" font-size="10.00">std::array&lt; std::array</text>
<text text-anchor="middle" x="127" y="-85.5" font-family="Helvetica,sans-Serif" font-size="10.00">&lt; int, N &gt;, M &gt;</text>
</a>
</g>
</g>
<!-- Node2&#45;&gt;Node1 -->
<g id="edge1" class="edge">
<title>Node2&#45;&gt;Node1</title>
<path fill="none" stroke="#9a32cd" stroke-dasharray="5,2" d="M108.89,-70.31C98.47,-57.53 85.69,-41.86 76.61,-30.73"/>
<polygon fill="#9a32cd" stroke="#9a32cd" points="106.3,-72.67 115.34,-78.2 111.73,-68.24 106.3,-72.67"/>
<text text-anchor="middle" x="107" y="-52" font-family="Helvetica,sans-Serif" font-size="10.00"> ST</text>
</g>
<!-- Node3 -->
<g id="node3" class="node">
<title>Node3</title>
<g id="a_node3"><a target="_blank" xlink:href="http://en.cppreference.com/w/cpp/container/array.html" xlink:title=" ">
<polygon fill="white" stroke="black" points="0,-156.5 0,-175.5 100,-175.5 100,-156.5 0,-156.5"/>
<text text-anchor="middle" x="50" y="-163.5" font-family="Helvetica,sans-Serif" font-size="10.00">std::array&lt; int, N &gt;</text>
</a>
</g>
</g>
<!-- Node3&#45;&gt;Node1 -->
<g id="edge3" class="edge">
<title>Node3&#45;&gt;Node1</title>
<path fill="none" stroke="#9a32cd" stroke-dasharray="5,2" d="M45.82,-146.41C42.47,-128.71 38.94,-101.38 43,-78 45.91,-61.24 52.96,-43.01 58.3,-30.78"/>
<polygon fill="#9a32cd" stroke="#9a32cd" points="42.41,-147.21 47.86,-156.29 49.26,-145.79 42.41,-147.21"/>
<text text-anchor="middle" x="53.5" y="-96.5" font-family="Helvetica,sans-Serif" font-size="10.00"> A</text>
<text text-anchor="middle" x="53.5" y="-85.5" font-family="Helvetica,sans-Serif" font-size="10.00">LOG</text>
</g>
<!-- Node3&#45;&gt;Node2 -->
<g id="edge2" class="edge">
<title>Node3&#45;&gt;Node2</title>
<path fill="none" stroke="#9a32cd" stroke-dasharray="5,2" d="M66.99,-149.44C80.33,-137.23 98.73,-120.39 111.63,-108.58"/>
<polygon fill="#9a32cd" stroke="#9a32cd" points="64.45,-147.02 59.44,-156.36 69.18,-152.18 64.45,-147.02"/>
<text text-anchor="middle" x="111.5" y="-130" font-family="Helvetica,sans-Serif" font-size="10.00"> elements</text>
</g>
</g>
</svg>
