<?xml version="1.0" encoding="UTF-8" standalone="no"?>
<!DOCTYPE svg PUBLIC "-//W3C//DTD SVG 1.1//EN"
 "http://www.w3.org/Graphics/SVG/1.1/DTD/svg11.dtd">
<!-- Generated by graphviz version 2.47.2 (20210527.0053)
 -->
<!-- Title: data_structures::sparse_table::Sparse_table Pages: 1 -->
<svg width="192pt" height="184pt"
 viewBox="0.00 0.00 192.00 184.00" xmlns="http://www.w3.org/2000/svg" xmlns:xlink="http://www.w3.org/1999/xlink">
<g id="graph0" class="graph" transform="scale(1 1) rotate(0) translate(4 180)">
<title>data_structures::sparse_table::Sparse_table</title>
<polygon fill="white" stroke="transparent" points="-4,4 -4,-180 188,-180 188,4 -4,4"/>
<!-- Node1 -->
<g id="node1" class="node">
<title>Node1</title>
<g id="a_node1"><a xlink:title="A struct to represent sparse table.">
<polygon fill="#bfbfbf" stroke="black" points="6.5,-0.5 6.5,-30.5 125.5,-30.5 125.5,-0.5 6.5,-0.5"/>
<text text-anchor="start" x="14.5" y="-18.5" font-family="Helvetica,sans-Serif" font-size="10.00">data_structures::sparse</text>
<text text-anchor="middle" x="66" y="-7.5" font-family="Helvetica,sans-Serif" font-size="10.00">_table::Sparse_table</text>
</a>
</g>
</g>
<!-- Node2 -->
<g id="node2" class="node">
<title>Node2</title>
<g id="a_node2"><a target="_blank" xlink:href="http://en.cppreference.com/w/cpp/container/array.html" xlink:title=" ">
<polygon fill="white" stroke="black" points="76,-78.5 76,-108.5 184,-108.5 184,-78.5 76,-78.5"/>
<text text-anchor="start" x="84" y="-96.5" font-family="Helvetica,sans-Serif" font-size="10.00">std::array&lt; std::array</text>
<text text-anchor="middle" x="130" y="-85.5" font-family="Helvetica,sans-Serif" font-size="10.00">&lt; int, N &gt;, M &gt;</text>
</a>
</g>
</g>
<!-- Node2&#45;&gt;Node1 -->
<g id="edge1" class="edge">
<title>Node2&#45;&gt;Node1</title>
<path fill="none" stroke="#9a32cd" stroke-dasharray="5,2" d="M111.31,-70.31C100.55,-57.53 87.36,-41.86 77.98,-30.73"/>
<polygon fill="#9a32cd" stroke="#9a32cd" points="108.84,-72.81 117.96,-78.2 114.2,-68.3 108.84,-72.81"/>
<text text-anchor="middle" x="109" y="-52" font-family="Helvetica,sans-Serif" font-size="10.00"> ST</text>
</g>
<!-- Node3 -->
<g id="node3" class="node">
<title>Node3</title>
<g id="a_node3"><a target="_blank" xlink:href="http://en.cppreference.com/w/cpp/container/array.html" xlink:title=" ">
<polygon fill="white" stroke="black" points="0,-156.5 0,-175.5 100,-175.5 100,-156.5 0,-156.5"/>
<text text-anchor="middle" x="50" y="-163.5" font-family="Helvetica,sans-Serif" font-size="10.00">std::array&lt; int, N &gt;</text>
</a>
</g>
</g>
<!-- Node3&#45;&gt;Node1 -->
<g id="edge3" class="edge">
<title>Node3&#45;&gt;Node1</title>
<path fill="none" stroke="#9a32cd" stroke-dasharray="5,2" d="M45.74,-146.4C42.34,-128.69 38.78,-101.35 43,-78 46.04,-61.17 53.42,-42.95 59,-30.75"/>
<polygon fill="#9a32cd" stroke="#9a32cd" points="42.34,-147.22 47.82,-156.28 49.19,-145.78 42.34,-147.22"/>
<text text-anchor="middle" x="55" y="-96.5" font-family="Helvetica,sans-Serif" font-size="10.00"> LOG</text>
<text text-anchor="middle" x="55" y="-85.5" font-family="Helvetica,sans-Serif" font-size="10.00">a</text>
</g>
<!-- Node3&#45;&gt;Node2 -->
<g id="edge2" class="edge">
<title>Node3&#45;&gt;Node2</title>
<path fill="none" stroke="#9a32cd" stroke-dasharray="5,2" d="M67.66,-149.44C81.51,-137.23 100.63,-120.39 114.03,-108.58"/>
<polygon fill="#9a32cd" stroke="#9a32cd" points="65,-147.12 59.81,-156.36 69.63,-152.37 65,-147.12"/>
<text text-anchor="middle" x="113.5" y="-130" font-family="Helvetica,sans-Serif" font-size="10.00"> elements</text>
</g>
</g>
</svg>
